<?xml version="1.0" encoding="UTF-8" standalone="no"?>
<svg
   xmlns:dc="http://purl.org/dc/elements/1.1/"
   xmlns:cc="http://creativecommons.org/ns#"
   xmlns:rdf="http://www.w3.org/1999/02/22-rdf-syntax-ns#"
   xmlns:svg="http://www.w3.org/2000/svg"
   xmlns="http://www.w3.org/2000/svg"
   version="1.1"
   id="svg2"
   viewBox="0 0 128 128"
   height="128"
   width="128">
  <defs
     id="defs4">
    <filter
       height="1.096"
       y="-0.048"
       width="1.096"
       x="-0.048"
       id="filter4158"
       style="color-interpolation-filters:sRGB">
      <feGaussianBlur
         id="feGaussianBlur4160"
         stdDeviation="2.56" />
    </filter>
    <filter
       height="1.0760951"
       y="-0.038047538"
       width="1.1300073"
       x="-0.065003627"
       id="filter4298"
       style="color-interpolation-filters:sRGB">
      <feGaussianBlur
         id="feGaussianBlur4300"
         stdDeviation="7.34002" />
    </filter>
  </defs>
  <metadata
     id="metadata7">
    <rdf:RDF>
      <cc:Work
         rdf:about="">
        <dc:format>image/svg+xml</dc:format>
        <dc:type
           rdf:resource="http://purl.org/dc/dcmitype/StillImage" />
        <dc:title></dc:title>
      </cc:Work>
    </rdf:RDF>
  </metadata>
  <g
     style="display:inline"
     id="layer2">
    <circle
       r="64"
       cy="68.000023"
       cx="64"
       id="path3336-4"
       style="opacity:0.2;fill:#004d40;fill-opacity:1;fill-rule:nonzero;stroke:none;stroke-width:8;stroke-linecap:butt;stroke-linejoin:miter;stroke-miterlimit:4;stroke-dasharray:none;stroke-dashoffset:0;stroke-opacity:1;filter:url(#filter4158)" />
  </g>
  <g
     style="display:inline"
     transform="translate(0,-924.36216)"
     id="layer1">
    <circle
       r="64"
       cy="988.36218"
       cx="64"
       id="path3336"
       style="opacity:1;fill:#009688;fill-opacity:1;fill-rule:nonzero;stroke:none;stroke-width:8;stroke-linecap:butt;stroke-linejoin:miter;stroke-miterlimit:4;stroke-dasharray:none;stroke-dashoffset:0;stroke-opacity:1" />
    <g
       id="g4288"
       transform="matrix(0.18014706,0,0,0.18014706,22.295866,948.65805)"
       style="opacity:0.2;fill:#000000;filter:url(#filter4298)">
      <path
         id="path4290"
         d="M 167.5,0 C 147.021,0 128.674,11.623 115.837,32.728 102.86,54.064 96,84.069 96,119.5 c 0,25.653 13.894,49.465 36.26,62.144 7.242,4.105 11.74,12.106 11.74,20.881 l 0,31.421 c -4.765,2.647 -8,7.728 -8,13.555 l 0,184 c 0,17.369 14.131,31.5 31.5,31.5 17.369,0 31.5,-14.131 31.5,-31.5 l 0,-184 c 0,-5.827 -3.235,-10.908 -8,-13.555 l 0,-31.421 c 0,-8.774 4.499,-16.775 11.74,-20.881 C 225.106,168.965 239,145.152 239,119.5 239,84.069 232.14,54.064 219.163,32.728 206.326,11.623 187.979,0 167.5,0 Z m 16,247 c 0.276,0 0.5,0.225 0.5,0.5 l 0,16.5 -33,0 0,-16.5 c 0,-0.275 0.224,-0.5 0.5,-0.5 l 32,0 z m -16,201 c -9.098,0 -16.5,-7.402 -16.5,-16.5 l 0,-152.5 33,0 0,152.5 c 0,9.098 -7.402,16.5 -16.5,16.5 z M 195.343,168.595 C 183.412,175.358 176,188.359 176,202.524 l 0,29.476 -17,0 0,-29.476 c 0,-14.165 -7.412,-27.166 -19.342,-33.93 C 121.981,158.574 111,139.763 111,119.5 111,86.819 117.104,59.51 128.653,40.522 138.809,23.825 152.242,15 167.5,15 c 15.258,0 28.691,8.825 38.847,25.522 C 217.896,59.51 224,86.819 224,119.5 c 0,20.262 -10.981,39.074 -28.657,49.095 z"
         style="fill:#000000" />
      <path
         id="path4292"
         d="M 359.5,0 C 355.358,0 352,3.357 352,7.5 l 0,112 c 0,4.687 -3.813,8.5 -8.5,8.5 -4.687,0 -8.5,-3.813 -8.5,-8.5 l 0,-112 C 335,3.357 331.642,0 327.5,0 323.358,0 320,3.357 320,7.5 l 0,112 c 0,4.687 -3.813,8.5 -8.5,8.5 -4.687,0 -8.5,-3.813 -8.5,-8.5 l 0,-112 C 303,3.357 299.642,0 295.5,0 291.358,0 288,3.357 288,7.5 l 0,112 c 0,4.687 -3.813,8.5 -8.5,8.5 -4.687,0 -8.5,-3.813 -8.5,-8.5 l 0,-112 C 271,3.357 267.642,0 263.5,0 259.358,0 256,3.357 256,7.5 l 0,136 c 0,21.624 12.658,41.183 32,50.232 l 0,40.211 c -4.766,2.647 -8.001,7.728 -8.001,13.556 l 0,184 c 0,8.414 3.277,16.324 9.227,22.273 5.95,5.95 13.86,9.227 22.274,9.226 17.369,0 31.5,-14.131 31.5,-31.499 l 0,-159.97 c 0,-0.01 10e-4,-0.019 10e-4,-0.029 0,-0.01 -10e-4,-0.019 -10e-4,-0.029 l 0,-23.972 c 0,-5.826 -3.234,-10.907 -7.999,-13.554 l 0,-40.213 c 19.342,-9.05 32,-28.608 32,-50.232 l 0,-136 C 367,3.357 363.642,0 359.5,0 Z m -32.019,246.999 c 0.007,0 0.013,0.001 0.019,0.001 10e-4,0 0.002,0 0.003,0 0.274,0.002 0.496,0.225 0.496,0.499 l 0,16.501 -33,0 0,-16.501 c 0,-0.274 0.222,-0.497 0.496,-0.499 0.002,0 0.003,0 0.005,0 0.007,0 0.013,-0.001 0.019,-0.001 l 31.962,0 z m -15.982,200.999 c -4.408,0 -8.551,-1.716 -11.667,-4.832 -3.117,-3.117 -4.833,-7.26 -4.833,-11.667 l 0,-152.499 33,0 0,152.499 c 0,9.098 -7.402,16.499 -16.5,16.499 z M 324.997,181.64 c -2.995,1.061 -4.997,3.894 -4.997,7.07 l 0,43.289 -17,0 0,-43.289 c 0,-3.177 -2.002,-6.01 -4.997,-7.07 C 281.852,175.921 271,160.594 271,143.5 l 0,-2.097 c 2.638,1.027 5.503,1.597 8.5,1.597 6.177,0 11.801,-2.399 16,-6.31 4.199,3.911 9.823,6.31 16,6.31 6.177,0 11.801,-2.399 16,-6.31 4.199,3.911 9.823,6.31 16,6.31 2.997,0 5.862,-0.57 8.5,-1.597 l 0,2.097 c 0,17.094 -10.852,32.421 -27.003,38.14 z"
         style="fill:#000000" />
    </g>
    <g
       style="fill:#fafafa"
       transform="matrix(0.18014706,0,0,0.18014706,22.295866,946.65805)"
       id="g4230">
      <path
         style="fill:#fafafa"
         d="M 167.5,0 C 147.021,0 128.674,11.623 115.837,32.728 102.86,54.064 96,84.069 96,119.5 c 0,25.653 13.894,49.465 36.26,62.144 7.242,4.105 11.74,12.106 11.74,20.881 l 0,31.421 c -4.765,2.647 -8,7.728 -8,13.555 l 0,184 c 0,17.369 14.131,31.5 31.5,31.5 17.369,0 31.5,-14.131 31.5,-31.5 l 0,-184 c 0,-5.827 -3.235,-10.908 -8,-13.555 l 0,-31.421 c 0,-8.774 4.499,-16.775 11.74,-20.881 C 225.106,168.965 239,145.152 239,119.5 239,84.069 232.14,54.064 219.163,32.728 206.326,11.623 187.979,0 167.5,0 Z m 16,247 c 0.276,0 0.5,0.225 0.5,0.5 l 0,16.5 -33,0 0,-16.5 c 0,-0.275 0.224,-0.5 0.5,-0.5 l 32,0 z m -16,201 c -9.098,0 -16.5,-7.402 -16.5,-16.5 l 0,-152.5 33,0 0,152.5 c 0,9.098 -7.402,16.5 -16.5,16.5 z M 195.343,168.595 C 183.412,175.358 176,188.359 176,202.524 l 0,29.476 -17,0 0,-29.476 c 0,-14.165 -7.412,-27.166 -19.342,-33.93 C 121.981,158.574 111,139.763 111,119.5 111,86.819 117.104,59.51 128.653,40.522 138.809,23.825 152.242,15 167.5,15 c 15.258,0 28.691,8.825 38.847,25.522 C 217.896,59.51 224,86.819 224,119.5 c 0,20.262 -10.981,39.074 -28.657,49.095 z"
         id="path4232" />
      <path
         style="fill:#fafafa"
         d="M 359.5,0 C 355.358,0 352,3.357 352,7.5 l 0,112 c 0,4.687 -3.813,8.5 -8.5,8.5 -4.687,0 -8.5,-3.813 -8.5,-8.5 l 0,-112 C 335,3.357 331.642,0 327.5,0 323.358,0 320,3.357 320,7.5 l 0,112 c 0,4.687 -3.813,8.5 -8.5,8.5 -4.687,0 -8.5,-3.813 -8.5,-8.5 l 0,-112 C 303,3.357 299.642,0 295.5,0 291.358,0 288,3.357 288,7.5 l 0,112 c 0,4.687 -3.813,8.5 -8.5,8.5 -4.687,0 -8.5,-3.813 -8.5,-8.5 l 0,-112 C 271,3.357 267.642,0 263.5,0 259.358,0 256,3.357 256,7.5 l 0,136 c 0,21.624 12.658,41.183 32,50.232 l 0,40.211 c -4.766,2.647 -8.001,7.728 -8.001,13.556 l 0,184 c 0,8.414 3.277,16.324 9.227,22.273 5.95,5.95 13.86,9.227 22.274,9.226 17.369,0 31.5,-14.131 31.5,-31.499 l 0,-159.97 c 0,-0.01 10e-4,-0.019 10e-4,-0.029 0,-0.01 -10e-4,-0.019 -10e-4,-0.029 l 0,-23.972 c 0,-5.826 -3.234,-10.907 -7.999,-13.554 l 0,-40.213 c 19.342,-9.05 32,-28.608 32,-50.232 l 0,-136 C 367,3.357 363.642,0 359.5,0 Z m -32.019,246.999 c 0.007,0 0.013,0.001 0.019,0.001 10e-4,0 0.002,0 0.003,0 0.274,0.002 0.496,0.225 0.496,0.499 l 0,16.501 -33,0 0,-16.501 c 0,-0.274 0.222,-0.497 0.496,-0.499 0.002,0 0.003,0 0.005,0 0.007,0 0.013,-0.001 0.019,-0.001 l 31.962,0 z m -15.982,200.999 c -4.408,0 -8.551,-1.716 -11.667,-4.832 -3.117,-3.117 -4.833,-7.26 -4.833,-11.667 l 0,-152.499 33,0 0,152.499 c 0,9.098 -7.402,16.499 -16.5,16.499 z M 324.997,181.64 c -2.995,1.061 -4.997,3.894 -4.997,7.07 l 0,43.289 -17,0 0,-43.289 c 0,-3.177 -2.002,-6.01 -4.997,-7.07 C 281.852,175.921 271,160.594 271,143.5 l 0,-2.097 c 2.638,1.027 5.503,1.597 8.5,1.597 6.177,0 11.801,-2.399 16,-6.31 4.199,3.911 9.823,6.31 16,6.31 6.177,0 11.801,-2.399 16,-6.31 4.199,3.911 9.823,6.31 16,6.31 2.997,0 5.862,-0.57 8.5,-1.597 l 0,2.097 c 0,17.094 -10.852,32.421 -27.003,38.14 z"
         id="path4234" />
    </g>
  </g>
</svg>
