<?xml version="1.0" encoding="UTF-8" standalone="no"?>
<svg
   xmlns:ns="&amp;#38;#38;#38;#38;ns_sfw;"
   xmlns:dc="http://purl.org/dc/elements/1.1/"
   xmlns:cc="http://creativecommons.org/ns#"
   xmlns:rdf="http://www.w3.org/1999/02/22-rdf-syntax-ns#"
   xmlns:svg="http://www.w3.org/2000/svg"
   xmlns="http://www.w3.org/2000/svg"
   xml:space="preserve"
   enable-background="new 212.605 13.333 120.916 63"
   viewBox="212.605 13.333 155 64"
   height="64"
   width="155"
   y="0px"
   x="0px"
   id="Layer_1"
   version="1.1"><defs
     id="defs33"><filter
       height="1.1300469"
       y="-0.065023456"
       width="1.0760815"
       x="-0.038040748"
       id="filter4243"
       style="color-interpolation-filters:sRGB"><feGaussianBlur
         id="feGaussianBlur4245"
         stdDeviation="1.3566282" /></filter><filter
       height="1.0924769"
       y="-0.046238474"
       width="1.0998021"
       x="-0.049901058"
       id="filter4572"
       style="color-interpolation-filters:sRGB"><feGaussianBlur
         id="feGaussianBlur4574"
         stdDeviation="1.1894541" /></filter></defs><metadata
     id="metadata3"><ns:sfw><ns:slices /><ns:sliceSourceBounds
         bottomLeftOrigin="true"
         y="391.652"
         x="631.885"
         height="61.736"
         width="120.206" /></ns:sfw><rdf:RDF><cc:Work
         rdf:about=""><dc:format>image/svg+xml</dc:format><dc:type
           rdf:resource="http://purl.org/dc/dcmitype/StillImage" /><dc:title></dc:title></cc:Work></rdf:RDF></metadata><path
     id="polygon4442"
     d="m 257.73975,16.463889 -5.71484,3.296875 -5.7207,3.300782 0,6.597656 0,6.597656 5.72265,3.294922 5.71289,3.298828 0.002,0.002 5.71875,-3.300781 0.002,0 5.71484,-3.294922 0,-0.002 0,-6.597656 0,-6.595703 -5.71484,-3.298829 -0.002,-0.002 -5.71875,-3.294922 -0.002,-0.002 z m -22.66992,8.945313 -3.80859,2.195312 -3.80469,2.195313 -0.006,0.0039 0.006,0.0039 0,4.386719 0,4.392578 3.80469,2.197266 3.80859,2.195312 3.80273,-2.195312 3.80469,-2.197266 0,-4.388672 0,-0.0039 0,-4.384766 0.0117,-0.0059 -3.80859,-2.197265 -3.81055,-2.197266 z m -9.5332,14.291016 -4.75782,2.75 -4.75781,2.75 -0.0195,0.0098 0.0195,0.01172 0,5.474609 0,5.496094 4.75781,2.75 4.75586,2.753906 0.002,0 4.76367,-2.748047 4.75976,-2.746093 0,-5.494141 0,-5.494141 0.01,-0.0039 -2.62891,-1.517578 -2.14648,-1.242187 -4.75781,-2.75 z m 40.03711,1.111328 -3.81836,2.195312 -3.81836,2.197266 0,4.394531 0,4.388672 3.81836,2.195312 3.81836,2.199219 3.8164,-2.199219 3.81836,-2.195312 0,-0.0098 0,-4.378906 0,-0.02539 0,-4.402343 -0.0273,0.01758 -3.79102,-2.181641 -3.8164,-2.195312 z m -7.63672,15.375 -1.16016,0.671875 -3.61328,2.083984 -4.76953,2.751953 0.0176,0.0098 0,5.488281 0,5.501953 4.76367,2.757813 4.76172,2.75 4.76172,-2.75 0.002,0 4.76172,-2.746094 0,-0.01172 0,-5.482422 0,-0.01953 0,-5.498047 -4.76367,-2.751953 -0.002,0 -4.75976,-2.755859 z m -17.14063,3.330078 -2.86523,1.646484 -2.86133,1.646484 0,3.291016 0,3.285156 2.86133,1.650391 2.86523,1.644531 2.86719,-1.644531 2.86719,-1.650391 0,-0.01172 0,-3.273438 0,-0.03516 0,-3.304688 -0.043,0.02344 -2.82422,-1.621094 -2.86719,-1.646484 z"
     style="opacity:0.2;fill:#000000;filter:url(#filter4572)" /><g
     id="g4341"><g
       transform="translate(3.3967407,-1.1316648)"
       id="g4307"><polygon
         id="polygon13"
         points="260.596,37.032 254.875,40.333 249.16,37.032 243.439,33.736 243.439,27.138 243.439,20.542 249.16,17.242 254.875,13.945 260.596,17.242 266.312,20.542 266.312,27.138 266.312,33.736 "
         style="fill:#ff5722"
         transform="translate(-0.53149427,1.6520006)" /><rect
         id="rect29"
         height="13.194"
         width="22.872999"
         y="22.194"
         x="242.9075"
         style="fill:none" /><path
         style="opacity:0.25;fill:#ffffff"
         d="m 254.34304,15.596329 -5.71485,3.296875 -5.7207,3.300781 5.7207,3.296875 5.71485,3.300782 5.7207,-3.300782 5.7168,-3.296875 -5.7168,-3.300781 -5.7207,-3.296875 z"
         id="polygon3371" /><path
         style="opacity:0.25;fill:#000000"
         d="m 265.78054,22.193986 -5.7168,3.296875 -5.7207,3.300781 0,13.19336 5.7207,-3.300782 5.7168,-3.296875 0,-6.597656 0,-6.595703 z"
         id="path3373" /></g><g
       transform="translate(3.3967407,-1.1316648)"
       id="g4313"><polygon
         id="polygon15"
         points="266.524,53.662 262.708,55.862 258.889,53.662 255.072,51.467 255.072,47.078 255.072,42.684 258.889,40.487 262.708,38.291 266.524,40.487 270.343,42.684 270.343,47.078 270.343,51.467 "
         style="fill:#673ab7"
         transform="translate(-0.53149427,1.6520006)" /><path
         style="opacity:0.25;fill:#000000"
         d="m 269.81151,44.301822 -3.81645,2.200943 -3.81905,2.203551 0,8.807685 3.81905,-2.203552 3.81645,-2.200943 0,-4.404494 0,-4.40319 z"
         id="path3373-8" /><path
         style="opacity:0.25;fill:#ffffff"
         d="m 262.17536,39.943001 -3.80497,2.195075 -3.80887,2.197675 3.80887,2.195074 3.80497,2.197676 3.80887,-2.197676 3.80627,-2.195074 -3.80627,-2.197675 -3.80887,-2.195075 z"
         id="polygon3371-3" /></g><g
       transform="translate(3.3967407,-1.1316648)"
       id="g4318"><polygon
         id="polygon11"
         points="259.833,72.931 255.072,75.681 250.309,72.931 245.546,70.174 245.546,64.673 245.546,59.174 250.309,56.423 255.072,53.667 259.833,56.423 264.596,59.174 264.596,64.673 264.596,70.174 "
         style="fill:#4caf50"
         transform="translate(-0.53149427,1.6520006)" /><path
         style="opacity:0.25;fill:#ffffff"
         d="m 254.52988,55.326002 -4.76406,2.748371 -4.76895,2.751628 4.76895,2.748372 4.76406,2.751628 4.76895,-2.751628 4.76568,-2.748372 -4.76568,-2.751628 -4.76895,-2.748371 z"
         id="polygon3371-1" /><path
         style="opacity:0.25;fill:#000000"
         d="m 264.06451,60.851303 -4.76088,2.745594 -4.76412,2.748847 0,10.987257 4.76412,-2.748849 4.76088,-2.745593 0,-5.494442 0,-5.492814 z"
         id="path3373-8-3" /></g><g
       transform="translate(3.3967407,-1.1316648)"
       id="g4323"><polygon
         id="polygon17"
         points="240.798,68.515 237.931,70.16 235.066,68.515 232.203,66.866 232.203,63.58 232.203,60.289 235.066,58.642 237.931,56.997 240.798,58.642 243.664,60.289 243.664,63.58 243.664,66.866 "
         style="fill:#ffeb3b"
         transform="translate(-0.53149427,1.6520006)" /><path
         style="opacity:0.25;fill:#000000"
         d="m 243.13251,61.891836 -2.86552,1.652545 -2.86748,1.654502 0,6.613118 2.86748,-1.654504 2.86552,-1.652544 0,-3.307049 0,-3.306068 z"
         id="path3373-8-3-9" /><path
         style="opacity:0.25;fill:#ffffff"
         d="m 237.39984,58.649189 -2.83665,1.636454 -2.83956,1.638393 2.83956,1.636454 2.83665,1.638393 2.83956,-1.638393 2.83761,-1.636454 -2.83761,-1.638393 -2.83956,-1.636454 z"
         id="polygon3371-1-2" /></g><polygon
       transform="translate(2.8652464,0.5203358)"
       style="fill:#4db6ac"
       points="217.912,56.423 213.156,53.672 213.156,48.176 213.156,42.679 217.912,39.929 222.671,37.18 227.429,39.929 232.183,42.679 232.183,48.176 232.183,53.672 227.429,56.423 222.671,59.176 "
       id="polygon9" /><path
       id="path3373-8-3-95"
       d="m 235.05975,43.214638 -4.76088,2.745594 -4.76412,2.748847 0,10.987257 4.76412,-2.748849 4.76088,-2.745593 0,-5.494442 0,-5.492814 z"
       style="opacity:0.25;fill:#000000" /><path
       id="polygon3371-1-3"
       d="m 225.53475,37.70908 -4.76406,2.748371 -4.76895,2.751628 4.76895,2.748372 4.76406,2.751628 4.76895,-2.751628 4.76568,-2.748372 -4.76568,-2.751628 -4.76895,-2.748371 z"
       style="opacity:0.25;fill:#ffffff" /><g
       transform="translate(3.3967407,-1.1316648)"
       id="g4333"><polygon
         id="polygon19"
         points="236.007,38.264 232.203,40.459 228.396,38.264 224.591,36.067 224.591,31.674 224.591,27.279 228.396,25.084 232.203,22.889 236.007,25.084 239.812,27.279 239.812,31.674 239.812,36.067 "
         style="fill:#795548"
         transform="translate(-0.53149427,1.6520006)" /><path
         style="opacity:0.25;fill:#000000"
         d="m 239.28051,28.941885 -3.80321,2.193304 -3.80579,2.195903 0,8.777117 3.80579,-2.195905 3.80321,-2.193303 0,-4.389209 0,-4.387907 z"
         id="path3373-8-3-90" /><path
         style="opacity:0.25;fill:#ffffff"
         d="m 231.67167,24.541095 -3.80691,2.196198 -3.81083,2.1988 3.81083,2.196199 3.80691,2.1988 3.81083,-2.1988 3.80821,-2.196199 -3.80821,-2.1988 -3.81083,-2.196198 z"
         id="polygon3371-1-8" /></g></g><text
     id="text3358-4"
     y="44.496593"
     x="319.64578"
     style="font-style:normal;font-variant:normal;font-weight:500;font-stretch:normal;font-size:20px;line-height:125%;font-family:'AvantGarde LT Medium';-inkscape-font-specification:'AvantGarde LT Medium, Medium';text-align:center;letter-spacing:0px;word-spacing:0px;writing-mode:lr-tb;text-anchor:middle;opacity:0.2;fill:#000000;fill-opacity:1;stroke:none;stroke-width:1px;stroke-linecap:butt;stroke-linejoin:miter;stroke-opacity:1;filter:url(#filter4243)"
     xml:space="preserve"><tspan
       style="font-size:30px;fill:#000000"
       y="44.496593"
       x="319.64578"
       id="tspan3366-6">RU</tspan><tspan
       id="tspan3370-5"
       y="72.089409"
       x="319.64578">Até Você</tspan></text>
<text
     id="text3358"
     y="42.496593"
     x="319.64578"
     style="font-style:normal;font-variant:normal;font-weight:500;font-stretch:normal;font-size:20px;line-height:125%;font-family:'AvantGarde LT Medium';-inkscape-font-specification:'AvantGarde LT Medium, Medium';text-align:center;letter-spacing:0px;word-spacing:0px;writing-mode:lr-tb;text-anchor:middle;fill:#fafafa;fill-opacity:1;stroke:none;stroke-width:1px;stroke-linecap:butt;stroke-linejoin:miter;stroke-opacity:1"
     xml:space="preserve"><tspan
       style="font-size:30px;fill:#fafafa"
       y="42.496593"
       x="319.64578"
       id="tspan3366">RU</tspan><tspan
       id="tspan3370"
       y="70.089409"
       x="319.64578">Até Você</tspan></text>
</svg>