<?xml version="1.0" encoding="UTF-8" standalone="no"?>
<svg
   xmlns:dc="http://purl.org/dc/elements/1.1/"
   xmlns:cc="http://creativecommons.org/ns#"
   xmlns:rdf="http://www.w3.org/1999/02/22-rdf-syntax-ns#"
   xmlns:svg="http://www.w3.org/2000/svg"
   xmlns="http://www.w3.org/2000/svg"
   version="1.1"
   id="Layer_1"
   x="0px"
   y="0px"
   width="160"
   height="64"
   viewBox="212.605 13.333 160 64"
   enable-background="new 212.605 13.333 120.916 63"
   xml:space="preserve"><defs
     id="defs33"><filter
       style="color-interpolation-filters:sRGB"
       id="filter4243"
       x="-0.03804075"
       width="1.0760815"
       y="-0.065023459"
       height="1.1300468"><feGaussianBlur
         stdDeviation="1.3566282"
         id="feGaussianBlur4245" /></filter><filter
       style="color-interpolation-filters:sRGB"
       id="filter4572"
       x="-0.049901057"
       width="1.0998021"
       y="-0.046238475"
       height="1.0924768"><feGaussianBlur
         stdDeviation="1.1894541"
         id="feGaussianBlur4574" /></filter></defs><metadata
     id="metadata3"><rdf:RDF><cc:Work
         rdf:about=""><dc:format>image/svg+xml</dc:format><dc:type
           rdf:resource="http://purl.org/dc/dcmitype/StillImage" /><dc:title></dc:title></cc:Work></rdf:RDF></metadata><path
     style="opacity:0.2;fill:#000000;filter:url(#filter4572)"
     d="m 257.73975,16.463889 -5.71484,3.296875 -5.7207,3.300782 0,6.597656 0,6.597656 5.72265,3.294922 5.71289,3.298828 0.002,0.002 5.71875,-3.300781 0.002,0 5.71484,-3.294922 0,-0.002 0,-6.597656 0,-6.595703 -5.71484,-3.298829 -0.002,-0.002 -5.71875,-3.294922 -0.002,-0.002 z m -22.66992,8.945313 -3.80859,2.195312 -3.80469,2.195313 -0.006,0.0039 0.006,0.0039 0,4.386719 0,4.392578 3.80469,2.197266 3.80859,2.195312 3.80273,-2.195312 3.80469,-2.197266 0,-4.388672 0,-0.0039 0,-4.384766 0.0117,-0.0059 -3.80859,-2.197265 -3.81055,-2.197266 z m -9.5332,14.291016 -4.75782,2.75 -4.75781,2.75 -0.0195,0.0098 0.0195,0.01172 0,5.474609 0,5.496094 4.75781,2.75 4.75586,2.753906 0.002,0 4.76367,-2.748047 4.75976,-2.746093 0,-5.494141 0,-5.494141 0.01,-0.0039 -2.62891,-1.517578 -2.14648,-1.242187 -4.75781,-2.75 z m 40.03711,1.111328 -3.81836,2.195312 -3.81836,2.197266 0,4.394531 0,4.388672 3.81836,2.195312 3.81836,2.199219 3.8164,-2.199219 3.81836,-2.195312 0,-0.0098 0,-4.378906 0,-0.02539 0,-4.402343 -0.0273,0.01758 -3.79102,-2.181641 -3.8164,-2.195312 z m -7.63672,15.375 -1.16016,0.671875 -3.61328,2.083984 -4.76953,2.751953 0.0176,0.0098 0,5.488281 0,5.501953 4.76367,2.757813 4.76172,2.75 4.76172,-2.75 0.002,0 4.76172,-2.746094 0,-0.01172 0,-5.482422 0,-0.01953 0,-5.498047 -4.76367,-2.751953 -0.002,0 -4.75976,-2.755859 z m -17.14063,3.330078 -2.86523,1.646484 -2.86133,1.646484 0,3.291016 0,3.285156 2.86133,1.650391 2.86523,1.644531 2.86719,-1.644531 2.86719,-1.650391 0,-0.01172 0,-3.273438 0,-0.03516 0,-3.304688 -0.043,0.02344 -2.82422,-1.621094 -2.86719,-1.646484 z"
     id="polygon4442" /><g
     id="g4341"><g
       id="g4307"
       transform="translate(3.3967407,-1.1316648)"><polygon
         transform="translate(-0.53149427,1.6520006)"
         style="fill:#ff5722"
         points="243.439,33.736 243.439,27.138 243.439,20.542 249.16,17.242 254.875,13.945 260.596,17.242 266.312,20.542 266.312,27.138 266.312,33.736 260.596,37.032 254.875,40.333 249.16,37.032 "
         id="polygon13" /><rect
         style="fill:none"
         x="242.9075"
         y="22.194"
         width="22.872999"
         height="13.194"
         id="rect29" /><path
         id="polygon3371"
         d="m 254.34304,15.596329 -5.71485,3.296875 -5.7207,3.300781 5.7207,3.296875 5.71485,3.300782 5.7207,-3.300782 5.7168,-3.296875 -5.7168,-3.300781 -5.7207,-3.296875 z"
         style="opacity:0.25;fill:#ffffff" /><path
         id="path3373"
         d="m 265.78054,22.193986 -5.7168,3.296875 -5.7207,3.300781 0,13.19336 5.7207,-3.300782 5.7168,-3.296875 0,-6.597656 0,-6.595703 z"
         style="opacity:0.25;fill:#000000" /></g><g
       id="g4313"
       transform="translate(3.3967407,-1.1316648)"><polygon
         transform="translate(-0.53149427,1.6520006)"
         style="fill:#673ab7"
         points="255.072,51.467 255.072,47.078 255.072,42.684 258.889,40.487 262.708,38.291 266.524,40.487 270.343,42.684 270.343,47.078 270.343,51.467 266.524,53.662 262.708,55.862 258.889,53.662 "
         id="polygon15" /><path
         id="path3373-8"
         d="m 269.81151,44.301822 -3.81645,2.200943 -3.81905,2.203551 0,8.807685 3.81905,-2.203552 3.81645,-2.200943 0,-4.404494 0,-4.40319 z"
         style="opacity:0.25;fill:#000000" /><path
         id="polygon3371-3"
         d="m 262.17536,39.943001 -3.80497,2.195075 -3.80887,2.197675 3.80887,2.195074 3.80497,2.197676 3.80887,-2.197676 3.80627,-2.195074 -3.80627,-2.197675 -3.80887,-2.195075 z"
         style="opacity:0.25;fill:#ffffff" /></g><g
       id="g4318"
       transform="translate(3.3967407,-1.1316648)"><polygon
         transform="translate(-0.53149427,1.6520006)"
         style="fill:#4caf50"
         points="245.546,70.174 245.546,64.673 245.546,59.174 250.309,56.423 255.072,53.667 259.833,56.423 264.596,59.174 264.596,64.673 264.596,70.174 259.833,72.931 255.072,75.681 250.309,72.931 "
         id="polygon11" /><path
         id="polygon3371-1"
         d="m 254.52988,55.326002 -4.76406,2.748371 -4.76895,2.751628 4.76895,2.748372 4.76406,2.751628 4.76895,-2.751628 4.76568,-2.748372 -4.76568,-2.751628 -4.76895,-2.748371 z"
         style="opacity:0.25;fill:#ffffff" /><path
         id="path3373-8-3"
         d="m 264.06451,60.851303 -4.76088,2.745594 -4.76412,2.748847 0,10.987257 4.76412,-2.748849 4.76088,-2.745593 0,-5.494442 0,-5.492814 z"
         style="opacity:0.25;fill:#000000" /></g><g
       id="g4323"
       transform="translate(3.3967407,-1.1316648)"><polygon
         transform="translate(-0.53149427,1.6520006)"
         style="fill:#ffeb3b"
         points="232.203,66.866 232.203,63.58 232.203,60.289 235.066,58.642 237.931,56.997 240.798,58.642 243.664,60.289 243.664,63.58 243.664,66.866 240.798,68.515 237.931,70.16 235.066,68.515 "
         id="polygon17" /><path
         id="path3373-8-3-9"
         d="m 243.13251,61.891836 -2.86552,1.652545 -2.86748,1.654502 0,6.613118 2.86748,-1.654504 2.86552,-1.652544 0,-3.307049 0,-3.306068 z"
         style="opacity:0.25;fill:#000000" /><path
         id="polygon3371-1-2"
         d="m 237.39984,58.649189 -2.83665,1.636454 -2.83956,1.638393 2.83956,1.636454 2.83665,1.638393 2.83956,-1.638393 2.83761,-1.636454 -2.83761,-1.638393 -2.83956,-1.636454 z"
         style="opacity:0.25;fill:#ffffff" /></g><polygon
       id="polygon9"
       points="213.156,42.679 217.912,39.929 222.671,37.18 227.429,39.929 232.183,42.679 232.183,48.176 232.183,53.672 227.429,56.423 222.671,59.176 217.912,56.423 213.156,53.672 213.156,48.176 "
       style="fill:#4db6ac"
       transform="translate(2.8652464,0.5203358)" /><path
       style="opacity:0.25;fill:#000000"
       d="m 235.05975,43.214638 -4.76088,2.745594 -4.76412,2.748847 0,10.987257 4.76412,-2.748849 4.76088,-2.745593 0,-5.494442 0,-5.492814 z"
       id="path3373-8-3-95" /><path
       style="opacity:0.25;fill:#ffffff"
       d="m 225.53475,37.70908 -4.76406,2.748371 -4.76895,2.751628 4.76895,2.748372 4.76406,2.751628 4.76895,-2.751628 4.76568,-2.748372 -4.76568,-2.751628 -4.76895,-2.748371 z"
       id="polygon3371-1-3" /><g
       id="g4333"
       transform="translate(3.3967407,-1.1316648)"><polygon
         transform="translate(-0.53149427,1.6520006)"
         style="fill:#795548"
         points="224.591,36.067 224.591,31.674 224.591,27.279 228.396,25.084 232.203,22.889 236.007,25.084 239.812,27.279 239.812,31.674 239.812,36.067 236.007,38.264 232.203,40.459 228.396,38.264 "
         id="polygon19" /><path
         id="path3373-8-3-90"
         d="m 239.28051,28.941885 -3.80321,2.193304 -3.80579,2.195903 0,8.777117 3.80579,-2.195905 3.80321,-2.193303 0,-4.389209 0,-4.387907 z"
         style="opacity:0.25;fill:#000000" /><path
         id="polygon3371-1-8"
         d="m 231.67167,24.541095 -3.80691,2.196198 -3.81083,2.1988 3.81083,2.196199 3.80691,2.1988 3.81083,-2.1988 3.80821,-2.196199 -3.80821,-2.1988 -3.81083,-2.196198 z"
         style="opacity:0.25;fill:#ffffff" /></g></g><g
     id="text3358-4"
     style="font-style:normal;font-variant:normal;font-weight:500;font-stretch:normal;font-size:20px;line-height:125%;font-family:'AvantGarde LT Medium';-inkscape-font-specification:'AvantGarde LT Medium, Medium';text-align:center;letter-spacing:0px;word-spacing:0px;writing-mode:lr-tb;text-anchor:middle;opacity:0.2;fill:#000000;fill-opacity:1;stroke:none;stroke-width:1px;stroke-linecap:butt;stroke-linejoin:miter;stroke-opacity:1;filter:url(#filter4243)"
     transform="translate(6,0)"><path
       id="path3370"
       style="font-size:30px;fill:#000000"
       d="m 306.29086,33.756593 2.22,0 q 0.33,0 0.9,-0.03 0.6,-0.03 1.26,-0.15 0.69,-0.12 1.38,-0.39 0.72,-0.27 1.29,-0.75 0.57,-0.48 0.93,-1.2 0.36,-0.75 0.36,-1.83 0,-0.69 -0.27,-1.41 -0.24,-0.75 -0.84,-1.35 -0.57,-0.6 -1.5,-0.99 -0.93,-0.39 -2.31,-0.39 l -3.42,0 0,8.49 z m 7.38,10.74 -7.32,-10.29 -0.06,0 0,10.29 -3.24,0 0,-22.2 6.87,0 q 2.34,0 3.69,0.51 1.35,0.51 2.22,1.35 1.05,1.02 1.53,2.43 0.51,1.41 0.51,2.82 0,2.22 -0.81,3.57 -0.78,1.32 -1.83,2.04 -1.05,0.72 -2.13,0.96 -1.05,0.24 -1.59,0.24 l 6.21,8.28 -4.05,0 z" /><path
       id="path3372"
       style="font-size:30px;fill:#000000"
       d="m 335.98336,37.326593 q 0,1.89 -0.6,3.3 -0.6,1.38 -1.65,2.4 -1.05,0.87 -2.37,1.38 -1.29,0.51 -2.82,0.51 -1.53,0 -2.85,-0.51 -1.29,-0.51 -2.34,-1.38 -1.05,-1.02 -1.65,-2.4 -0.6,-1.41 -0.6,-3.3 l 0,-15.03 3.24,0 0,14.94 q 0,1.53 0.48,2.46 0.48,0.93 1.14,1.44 0.69,0.48 1.41,0.66 0.72,0.15 1.17,0.15 0.45,0 1.14,-0.15 0.72,-0.18 1.38,-0.66 0.69,-0.51 1.17,-1.44 0.51,-0.93 0.51,-2.46 l 0,-14.94 3.24,0 0,15.03 z" /><path
       id="path3374"
       d="m 285.105,65.749409 -1.88,-5.66 -0.04,0 -1.9,5.66 3.82,0 z m 2.38,6.34 -1.64,-4.36 -5.32,0 -1.64,4.36 -2.28,0 5.62,-14.8 1.94,0 5.62,14.8 -2.3,0 z" /><path
       id="path3376"
       d="m 293.67688,72.089409 -2.08,0 0,-9.18 -1.5,0 0,-1.9 1.5,0 0,-3.72 2.08,0 0,3.72 1.82,0 0,1.9 -1.82,0 0,9.18 z" /><path
       id="path3378"
       d="m 299.72375,58.369409 4.46,-2.56 0.88,1.62 -4.5,2.44 -0.84,-1.5 z m 5.86,7.48 q -0.04,-0.6 -0.32,-1.18 -0.28,-0.6 -0.76,-1.04 -0.48,-0.46 -1.12,-0.74 -0.64,-0.28 -1.38,-0.28 -0.76,0 -1.4,0.28 -0.62,0.28 -1.1,0.74 -0.48,0.44 -0.76,1.04 -0.28,0.58 -0.32,1.18 l 7.16,0 z m -7.16,1.6 q 0.2,0.8 0.58,1.38 0.4,0.56 0.9,0.94 0.52,0.36 1.08,0.54 0.56,0.16 1.08,0.16 1.16,0 1.96,-0.56 0.82,-0.58 1.2,-1.3 l 2.08,0 q -0.4,1.08 -1.04,1.8 -0.64,0.72 -1.38,1.16 -0.72,0.42 -1.5,0.6 -0.76,0.2 -1.4,0.2 -1.18,0 -2.22,-0.46 -1.02,-0.48 -1.78,-1.28 -0.76,-0.8 -1.2,-1.86 -0.44,-1.06 -0.44,-2.24 0,-1.24 0.44,-2.3 0.46,-1.08 1.22,-1.86 0.78,-0.78 1.8,-1.22 1.04,-0.44 2.22,-0.44 1.12,0 2.14,0.44 1.02,0.42 1.8,1.18 0.78,0.76 1.24,1.8 0.46,1.04 0.46,2.26 0,0.28 -0.02,0.62 -0.02,0.34 -0.04,0.44 l -9.18,0 z" /><path
       id="path3380"
       d="m 318.58016,72.089409 -5.96,-14.8 2.32,0 4.3,11.1 4.3,-11.1 2.28,0 -5.94,14.8 -1.3,0 z" /><path
       id="path3382"
       d="m 334.68031,66.509409 q 0,-0.74 -0.28,-1.44 -0.28,-0.7 -0.8,-1.24 -0.5,-0.56 -1.22,-0.88 -0.72,-0.34 -1.6,-0.34 -0.88,0 -1.6,0.34 -0.72,0.32 -1.24,0.88 -0.5,0.54 -0.78,1.26 -0.28,0.7 -0.28,1.44 0,0.76 0.28,1.46 0.28,0.7 0.8,1.26 0.52,0.56 1.22,0.9 0.72,0.32 1.6,0.32 0.84,0 1.54,-0.32 0.72,-0.32 1.24,-0.86 0.54,-0.56 0.82,-1.28 0.3,-0.72 0.3,-1.5 z m 2.08,0 q 0,1.02 -0.42,2.06 -0.4,1.04 -1.16,1.88 -0.76,0.84 -1.88,1.38 -1.12,0.54 -2.52,0.54 -1.4,0 -2.52,-0.52 -1.1,-0.54 -1.88,-1.38 -0.76,-0.84 -1.18,-1.88 -0.4,-1.06 -0.4,-2.12 0,-1.14 0.44,-2.18 0.46,-1.04 1.26,-1.82 0.8,-0.8 1.88,-1.28 1.1,-0.48 2.4,-0.48 1.26,0 2.34,0.46 1.1,0.46 1.9,1.26 0.82,0.78 1.28,1.84 0.46,1.06 0.46,2.24 z" /><path
       id="path3384"
       d="m 347.15594,64.689409 q -0.12,-0.26 -0.36,-0.62 -0.22,-0.36 -0.6,-0.68 -0.36,-0.32 -0.9,-0.54 -0.52,-0.24 -1.26,-0.24 -1,0 -1.7,0.38 -0.7,0.38 -1.14,0.96 -0.42,0.56 -0.62,1.26 -0.18,0.7 -0.18,1.32 0,0.72 0.22,1.44 0.24,0.7 0.68,1.26 0.46,0.54 1.12,0.9 0.68,0.34 1.58,0.34 1.18,0 1.96,-0.58 0.78,-0.6 1.18,-1.46 l 2.32,0 q -0.32,0.92 -0.86,1.66 -0.54,0.72 -1.26,1.24 -0.72,0.5 -1.58,0.76 -0.84,0.28 -1.76,0.28 -1.36,0 -2.42,-0.5 -1.06,-0.52 -1.78,-1.34 -0.72,-0.84 -1.1,-1.88 -0.38,-1.04 -0.38,-2.12 0,-1.12 0.4,-2.16 0.4,-1.06 1.14,-1.86 0.74,-0.82 1.78,-1.3 1.06,-0.5 2.38,-0.5 1.18,0 2.12,0.4 0.94,0.38 1.62,0.98 0.68,0.58 1.1,1.28 0.44,0.7 0.6,1.32 l -2.3,0 z" /><path
       id="path3386"
       d="m 357.935,59.449409 -1.38,-1.38 -1.44,1.38 -2.38,0 2.78,-2.7 2,0 2.8,2.7 -2.38,0 z m 2.18,6.4 q -0.04,-0.6 -0.32,-1.18 -0.28,-0.6 -0.76,-1.04 -0.48,-0.46 -1.12,-0.74 -0.64,-0.28 -1.38,-0.28 -0.76,0 -1.4,0.28 -0.62,0.28 -1.1,0.74 -0.48,0.44 -0.76,1.04 -0.28,0.58 -0.32,1.18 l 7.16,0 z m -7.16,1.6 q 0.2,0.8 0.58,1.38 0.4,0.56 0.9,0.94 0.52,0.36 1.08,0.54 0.56,0.16 1.08,0.16 1.16,0 1.96,-0.56 0.82,-0.58 1.2,-1.3 l 2.08,0 q -0.4,1.08 -1.04,1.8 -0.64,0.72 -1.38,1.16 -0.72,0.42 -1.5,0.6 -0.76,0.2 -1.4,0.2 -1.18,0 -2.22,-0.46 -1.02,-0.48 -1.78,-1.28 -0.76,-0.8 -1.2,-1.86 -0.44,-1.06 -0.44,-2.24 0,-1.24 0.44,-2.3 0.46,-1.08 1.22,-1.86 0.78,-0.78 1.8,-1.22 1.04,-0.44 2.22,-0.44 1.12,0 2.14,0.44 1.02,0.42 1.8,1.18 0.78,0.76 1.24,1.8 0.46,1.04 0.46,2.26 0,0.28 -0.02,0.62 -0.02,0.34 -0.04,0.44 l -9.18,0 z" /></g><g
     id="text3358"
     style="font-style:normal;font-variant:normal;font-weight:500;font-stretch:normal;font-size:20px;line-height:125%;font-family:'AvantGarde LT Medium';-inkscape-font-specification:'AvantGarde LT Medium, Medium';text-align:center;letter-spacing:0px;word-spacing:0px;writing-mode:lr-tb;text-anchor:middle;fill:#424242;fill-opacity:1;stroke:none;stroke-width:1px;stroke-linecap:butt;stroke-linejoin:miter;stroke-opacity:1"
     transform="translate(6,0)"><path
       id="path3389"
       style="font-size:30px;fill:#424242;fill-opacity:1"
       d="m 306.29086,31.756593 2.22,0 q 0.33,0 0.9,-0.03 0.6,-0.03 1.26,-0.15 0.69,-0.12 1.38,-0.39 0.72,-0.27 1.29,-0.75 0.57,-0.48 0.93,-1.2 0.36,-0.75 0.36,-1.83 0,-0.69 -0.27,-1.41 -0.24,-0.75 -0.84,-1.35 -0.57,-0.6 -1.5,-0.99 -0.93,-0.39 -2.31,-0.39 l -3.42,0 0,8.49 z m 7.38,10.74 -7.32,-10.29 -0.06,0 0,10.29 -3.24,0 0,-22.2 6.87,0 q 2.34,0 3.69,0.51 1.35,0.51 2.22,1.35 1.05,1.02 1.53,2.43 0.51,1.41 0.51,2.82 0,2.22 -0.81,3.57 -0.78,1.32 -1.83,2.04 -1.05,0.72 -2.13,0.96 -1.05,0.24 -1.59,0.24 l 6.21,8.28 -4.05,0 z" /><path
       id="path3391"
       style="font-size:30px;fill:#424242;fill-opacity:1"
       d="m 335.98336,35.326593 q 0,1.89 -0.6,3.3 -0.6,1.38 -1.65,2.4 -1.05,0.87 -2.37,1.38 -1.29,0.51 -2.82,0.51 -1.53,0 -2.85,-0.51 -1.29,-0.51 -2.34,-1.38 -1.05,-1.02 -1.65,-2.4 -0.6,-1.41 -0.6,-3.3 l 0,-15.03 3.24,0 0,14.94 q 0,1.53 0.48,2.46 0.48,0.93 1.14,1.44 0.69,0.48 1.41,0.66 0.72,0.15 1.17,0.15 0.45,0 1.14,-0.15 0.72,-0.18 1.38,-0.66 0.69,-0.51 1.17,-1.44 0.51,-0.93 0.51,-2.46 l 0,-14.94 3.24,0 0,15.03 z" /><path
       style="fill:#424242;fill-opacity:1"
       id="path3393"
       d="m 285.105,63.749409 -1.88,-5.66 -0.04,0 -1.9,5.66 3.82,0 z m 2.38,6.34 -1.64,-4.36 -5.32,0 -1.64,4.36 -2.28,0 5.62,-14.8 1.94,0 5.62,14.8 -2.3,0 z" /><path
       style="fill:#424242;fill-opacity:1"
       id="path3395"
       d="m 293.67688,70.089409 -2.08,0 0,-9.18 -1.5,0 0,-1.9 1.5,0 0,-3.72 2.08,0 0,3.72 1.82,0 0,1.9 -1.82,0 0,9.18 z" /><path
       style="fill:#424242;fill-opacity:1"
       id="path3397"
       d="m 299.72375,56.369409 4.46,-2.56 0.88,1.62 -4.5,2.44 -0.84,-1.5 z m 5.86,7.48 q -0.04,-0.6 -0.32,-1.18 -0.28,-0.6 -0.76,-1.04 -0.48,-0.46 -1.12,-0.74 -0.64,-0.28 -1.38,-0.28 -0.76,0 -1.4,0.28 -0.62,0.28 -1.1,0.74 -0.48,0.44 -0.76,1.04 -0.28,0.58 -0.32,1.18 l 7.16,0 z m -7.16,1.6 q 0.2,0.8 0.58,1.38 0.4,0.56 0.9,0.94 0.52,0.36 1.08,0.54 0.56,0.16 1.08,0.16 1.16,0 1.96,-0.56 0.82,-0.58 1.2,-1.3 l 2.08,0 q -0.4,1.08 -1.04,1.8 -0.64,0.72 -1.38,1.16 -0.72,0.42 -1.5,0.6 -0.76,0.2 -1.4,0.2 -1.18,0 -2.22,-0.46 -1.02,-0.48 -1.78,-1.28 -0.76,-0.8 -1.2,-1.86 -0.44,-1.06 -0.44,-2.24 0,-1.24 0.44,-2.3 0.46,-1.08 1.22,-1.86 0.78,-0.78 1.8,-1.22 1.04,-0.44 2.22,-0.44 1.12,0 2.14,0.44 1.02,0.42 1.8,1.18 0.78,0.76 1.24,1.8 0.46,1.04 0.46,2.26 0,0.28 -0.02,0.62 -0.02,0.34 -0.04,0.44 l -9.18,0 z" /><path
       style="fill:#424242;fill-opacity:1"
       id="path3399"
       d="m 318.58016,70.089409 -5.96,-14.8 2.32,0 4.3,11.1 4.3,-11.1 2.28,0 -5.94,14.8 -1.3,0 z" /><path
       style="fill:#424242;fill-opacity:1"
       id="path3401"
       d="m 334.68031,64.509409 q 0,-0.74 -0.28,-1.44 -0.28,-0.7 -0.8,-1.24 -0.5,-0.56 -1.22,-0.88 -0.72,-0.34 -1.6,-0.34 -0.88,0 -1.6,0.34 -0.72,0.32 -1.24,0.88 -0.5,0.54 -0.78,1.26 -0.28,0.7 -0.28,1.44 0,0.76 0.28,1.46 0.28,0.7 0.8,1.26 0.52,0.56 1.22,0.9 0.72,0.32 1.6,0.32 0.84,0 1.54,-0.32 0.72,-0.32 1.24,-0.86 0.54,-0.56 0.82,-1.28 0.3,-0.72 0.3,-1.5 z m 2.08,0 q 0,1.02 -0.42,2.06 -0.4,1.04 -1.16,1.88 -0.76,0.84 -1.88,1.38 -1.12,0.54 -2.52,0.54 -1.4,0 -2.52,-0.52 -1.1,-0.54 -1.88,-1.38 -0.76,-0.84 -1.18,-1.88 -0.4,-1.06 -0.4,-2.12 0,-1.14 0.44,-2.18 0.46,-1.04 1.26,-1.82 0.8,-0.8 1.88,-1.28 1.1,-0.48 2.4,-0.48 1.26,0 2.34,0.46 1.1,0.46 1.9,1.26 0.82,0.78 1.28,1.84 0.46,1.06 0.46,2.24 z" /><path
       style="fill:#424242;fill-opacity:1"
       id="path3403"
       d="m 347.15594,62.689409 q -0.12,-0.26 -0.36,-0.62 -0.22,-0.36 -0.6,-0.68 -0.36,-0.32 -0.9,-0.54 -0.52,-0.24 -1.26,-0.24 -1,0 -1.7,0.38 -0.7,0.38 -1.14,0.96 -0.42,0.56 -0.62,1.26 -0.18,0.7 -0.18,1.32 0,0.72 0.22,1.44 0.24,0.7 0.68,1.26 0.46,0.54 1.12,0.9 0.68,0.34 1.58,0.34 1.18,0 1.96,-0.58 0.78,-0.6 1.18,-1.46 l 2.32,0 q -0.32,0.92 -0.86,1.66 -0.54,0.72 -1.26,1.24 -0.72,0.5 -1.58,0.76 -0.84,0.28 -1.76,0.28 -1.36,0 -2.42,-0.5 -1.06,-0.52 -1.78,-1.34 -0.72,-0.84 -1.1,-1.88 -0.38,-1.04 -0.38,-2.12 0,-1.12 0.4,-2.16 0.4,-1.06 1.14,-1.86 0.74,-0.82 1.78,-1.3 1.06,-0.5 2.38,-0.5 1.18,0 2.12,0.4 0.94,0.38 1.62,0.98 0.68,0.58 1.1,1.28 0.44,0.7 0.6,1.32 l -2.3,0 z" /><path
       style="fill:#424242;fill-opacity:1"
       id="path3405"
       d="m 357.935,57.449409 -1.38,-1.38 -1.44,1.38 -2.38,0 2.78,-2.7 2,0 2.8,2.7 -2.38,0 z m 2.18,6.4 q -0.04,-0.6 -0.32,-1.18 -0.28,-0.6 -0.76,-1.04 -0.48,-0.46 -1.12,-0.74 -0.64,-0.28 -1.38,-0.28 -0.76,0 -1.4,0.28 -0.62,0.28 -1.1,0.74 -0.48,0.44 -0.76,1.04 -0.28,0.58 -0.32,1.18 l 7.16,0 z m -7.16,1.6 q 0.2,0.8 0.58,1.38 0.4,0.56 0.9,0.94 0.52,0.36 1.08,0.54 0.56,0.16 1.08,0.16 1.16,0 1.96,-0.56 0.82,-0.58 1.2,-1.3 l 2.08,0 q -0.4,1.08 -1.04,1.8 -0.64,0.72 -1.38,1.16 -0.72,0.42 -1.5,0.6 -0.76,0.2 -1.4,0.2 -1.18,0 -2.22,-0.46 -1.02,-0.48 -1.78,-1.28 -0.76,-0.8 -1.2,-1.86 -0.44,-1.06 -0.44,-2.24 0,-1.24 0.44,-2.3 0.46,-1.08 1.22,-1.86 0.78,-0.78 1.8,-1.22 1.04,-0.44 2.22,-0.44 1.12,0 2.14,0.44 1.02,0.42 1.8,1.18 0.78,0.76 1.24,1.8 0.46,1.04 0.46,2.26 0,0.28 -0.02,0.62 -0.02,0.34 -0.04,0.44 l -9.18,0 z" /></g></svg>
