<?xml version="1.0" encoding="UTF-8" standalone="no"?>
<svg
   xmlns:ns="&amp;#38;ns_sfw;"
   xmlns:dc="http://purl.org/dc/elements/1.1/"
   xmlns:cc="http://creativecommons.org/ns#"
   xmlns:rdf="http://www.w3.org/1999/02/22-rdf-syntax-ns#"
   xmlns:svg="http://www.w3.org/2000/svg"
   xmlns="http://www.w3.org/2000/svg"
   xmlns:sodipodi="http://sodipodi.sourceforge.net/DTD/sodipodi-0.dtd"
   xmlns:inkscape="http://www.inkscape.org/namespaces/inkscape"
   xml:space="preserve"
   enable-background="new 212.605 13.333 120.916 63"
   viewBox="212.605 13.333 63.999999 64"
   height="64"
   width="64"
   y="0px"
   x="0px"
   id="Layer_1"
   version="1.1"
   inkscape:version="0.91 r"
   sodipodi:docname="RU_ate_voce_logo.svg"><sodipodi:namedview
     pagecolor="#ffffff"
     bordercolor="#666666"
     borderopacity="1"
     objecttolerance="10"
     gridtolerance="10"
     guidetolerance="10"
     inkscape:pageopacity="0"
     inkscape:pageshadow="2"
     inkscape:window-width="1366"
     inkscape:window-height="715"
     id="namedview18"
     showgrid="false"
     inkscape:object-paths="false"
     inkscape:snap-intersection-paths="true"
     inkscape:object-nodes="true"
     inkscape:snap-bbox="false"
     inkscape:bbox-paths="true"
     inkscape:bbox-nodes="true"
     inkscape:snap-bbox-edge-midpoints="true"
     inkscape:snap-bbox-midpoints="true"
     fit-margin-top="0"
     fit-margin-left="0"
     fit-margin-right="0"
     fit-margin-bottom="0"
     inkscape:zoom="8.5"
     inkscape:cx="32"
     inkscape:cy="32"
     inkscape:window-x="0"
     inkscape:window-y="26"
     inkscape:window-maximized="1"
     inkscape:current-layer="Layer_1" /><defs
     id="defs33" /><metadata
     id="metadata3"><ns:sfw><ns:slices /><ns:sliceSourceBounds
         bottomLeftOrigin="true"
         y="391.652"
         x="631.885"
         height="61.736"
         width="120.206" /></ns:sfw><rdf:RDF><cc:Work
         rdf:about=""><dc:format>image/svg+xml</dc:format><dc:type
           rdf:resource="http://purl.org/dc/dcmitype/StillImage" /><dc:title></dc:title></cc:Work></rdf:RDF></metadata><g
     id="g4341"><g
       transform="translate(3.3967407,-1.1316648)"
       id="g4307"><polygon
         id="polygon13"
         points="243.439,27.138 243.439,20.542 249.16,17.242 254.875,13.945 260.596,17.242 266.312,20.542 266.312,27.138 266.312,33.736 260.596,37.032 254.875,40.333 249.16,37.032 243.439,33.736 "
         style="fill:#ff5722"
         transform="translate(-0.53149427,1.6520006)" /><rect
         id="rect29"
         height="13.194"
         width="22.872999"
         y="22.194"
         x="242.9075"
         style="fill:none" /><path
         style="opacity:0.25;fill:#ffffff"
         d="m 254.34304,15.596329 -5.71485,3.296875 -5.7207,3.300781 5.7207,3.296875 5.71485,3.300782 5.7207,-3.300782 5.7168,-3.296875 -5.7168,-3.300781 -5.7207,-3.296875 z"
         id="polygon3371"
         inkscape:connector-curvature="0" /><path
         style="opacity:0.25;fill:#000000"
         d="m 265.78054,22.193986 -5.7168,3.296875 -5.7207,3.300781 0,13.19336 5.7207,-3.300782 5.7168,-3.296875 0,-6.597656 0,-6.595703 z"
         id="path3373"
         inkscape:connector-curvature="0" /></g><g
       transform="translate(3.3967407,-1.1316648)"
       id="g4313"><polygon
         id="polygon15"
         points="255.072,47.078 255.072,42.684 258.889,40.487 262.708,38.291 266.524,40.487 270.343,42.684 270.343,47.078 270.343,51.467 266.524,53.662 262.708,55.862 258.889,53.662 255.072,51.467 "
         style="fill:#673ab7"
         transform="translate(-0.53149427,1.6520006)" /><path
         style="opacity:0.25;fill:#000000"
         d="m 269.81151,44.301822 -3.81645,2.200943 -3.81905,2.203551 0,8.807685 3.81905,-2.203552 3.81645,-2.200943 0,-4.404494 0,-4.40319 z"
         id="path3373-8"
         inkscape:connector-curvature="0" /><path
         inkscape:connector-curvature="0"
         style="opacity:0.25;fill:#ffffff"
         d="m 262.17536,39.943001 -3.80497,2.195075 -3.80887,2.197675 3.80887,2.195074 3.80497,2.197676 3.80887,-2.197676 3.80627,-2.195074 -3.80627,-2.197675 -3.80887,-2.195075 z"
         id="polygon3371-3" /></g><g
       transform="translate(3.3967407,-1.1316648)"
       id="g4318"><polygon
         id="polygon11"
         points="245.546,64.673 245.546,59.174 250.309,56.423 255.072,53.667 259.833,56.423 264.596,59.174 264.596,64.673 264.596,70.174 259.833,72.931 255.072,75.681 250.309,72.931 245.546,70.174 "
         style="fill:#4caf50"
         transform="translate(-0.53149427,1.6520006)" /><path
         inkscape:connector-curvature="0"
         style="opacity:0.25;fill:#ffffff"
         d="m 254.52988,55.326002 -4.76406,2.748371 -4.76895,2.751628 4.76895,2.748372 4.76406,2.751628 4.76895,-2.751628 4.76568,-2.748372 -4.76568,-2.751628 -4.76895,-2.748371 z"
         id="polygon3371-1" /><path
         style="opacity:0.25;fill:#000000"
         d="m 264.06451,60.851303 -4.76088,2.745594 -4.76412,2.748847 0,10.987257 4.76412,-2.748849 4.76088,-2.745593 0,-5.494442 0,-5.492814 z"
         id="path3373-8-3"
         inkscape:connector-curvature="0" /></g><g
       transform="translate(3.3967407,-1.1316648)"
       id="g4323"><polygon
         id="polygon17"
         points="232.203,63.58 232.203,60.289 235.066,58.642 237.931,56.997 240.798,58.642 243.664,60.289 243.664,63.58 243.664,66.866 240.798,68.515 237.931,70.16 235.066,68.515 232.203,66.866 "
         style="fill:#ffeb3b"
         transform="translate(-0.53149427,1.6520006)" /><path
         style="opacity:0.25;fill:#000000"
         d="m 243.13251,61.891836 -2.86552,1.652545 -2.86748,1.654502 0,6.613118 2.86748,-1.654504 2.86552,-1.652544 0,-3.307049 0,-3.306068 z"
         id="path3373-8-3-9"
         inkscape:connector-curvature="0" /><path
         inkscape:connector-curvature="0"
         style="opacity:0.25;fill:#ffffff"
         d="m 237.39984,58.649189 -2.83665,1.636454 -2.83956,1.638393 2.83956,1.636454 2.83665,1.638393 2.83956,-1.638393 2.83761,-1.636454 -2.83761,-1.638393 -2.83956,-1.636454 z"
         id="polygon3371-1-2" /></g><polygon
       transform="translate(2.8652464,0.5203358)"
       style="fill:#4db6ac"
       points="217.912,39.929 222.671,37.18 227.429,39.929 232.183,42.679 232.183,48.176 232.183,53.672 227.429,56.423 222.671,59.176 217.912,56.423 213.156,53.672 213.156,48.176 213.156,42.679 "
       id="polygon9" /><path
       inkscape:connector-curvature="0"
       id="path3373-8-3-95"
       d="m 235.05975,43.214638 -4.76088,2.745594 -4.76412,2.748847 0,10.987257 4.76412,-2.748849 4.76088,-2.745593 0,-5.494442 0,-5.492814 z"
       style="opacity:0.25;fill:#000000" /><path
       id="polygon3371-1-3"
       d="m 225.53475,37.70908 -4.76406,2.748371 -4.76895,2.751628 4.76895,2.748372 4.76406,2.751628 4.76895,-2.751628 4.76568,-2.748372 -4.76568,-2.751628 -4.76895,-2.748371 z"
       style="opacity:0.25;fill:#ffffff"
       inkscape:connector-curvature="0" /><g
       transform="translate(3.3967407,-1.1316648)"
       id="g4333"><polygon
         id="polygon19"
         points="224.591,31.674 224.591,27.279 228.396,25.084 232.203,22.889 236.007,25.084 239.812,27.279 239.812,31.674 239.812,36.067 236.007,38.264 232.203,40.459 228.396,38.264 224.591,36.067 "
         style="fill:#795548"
         transform="translate(-0.53149427,1.6520006)" /><path
         style="opacity:0.25;fill:#000000"
         d="m 239.28051,28.941885 -3.80321,2.193304 -3.80579,2.195903 0,8.777117 3.80579,-2.195905 3.80321,-2.193303 0,-4.389209 0,-4.387907 z"
         id="path3373-8-3-90"
         inkscape:connector-curvature="0" /><path
         inkscape:connector-curvature="0"
         style="opacity:0.25;fill:#ffffff"
         d="m 231.67167,24.541095 -3.80691,2.196198 -3.81083,2.1988 3.81083,2.196199 3.80691,2.1988 3.81083,-2.1988 3.80821,-2.196199 -3.80821,-2.1988 -3.81083,-2.196198 z"
         id="polygon3371-1-8" /></g></g></svg>